<svg id="svg" version="1.1" xmlns="http://www.w3.org/2000/svg" xmlns:xlink="http://www.w3.org/1999/xlink" width="50" height="50" viewBox="0, 0, 400,384.4155844155844"><g id="svgg"><path id="path0" d="M81.538 35.787 C 74.759 36.413,70.673 37.268,68.846 38.442 C 67.894 39.054,65.716 40.252,64.006 41.104 C 62.296 41.956,60.046 43.415,59.006 44.347 C 57.966 45.279,56.510 46.348,55.769 46.721 C 53.910 47.659,53.114 48.421,52.275 50.064 C 51.880 50.839,50.719 52.430,49.696 53.599 C 48.674 54.768,47.269 56.902,46.574 58.343 C 45.880 59.783,44.708 61.849,43.971 62.933 C 41.172 67.049,41.051 68.693,40.873 105.192 C 40.714 137.696,40.749 138.862,42.141 147.938 C 42.243 148.602,43.097 150.319,44.040 151.754 C 44.982 153.188,46.224 155.564,46.801 157.033 C 47.560 158.968,48.253 160.029,49.311 160.880 C 50.116 161.527,51.213 162.804,51.749 163.720 C 52.285 164.635,53.626 166.055,54.728 166.876 C 55.829 167.696,57.163 168.838,57.692 169.414 C 58.221 169.990,59.519 170.898,60.577 171.432 C 61.635 171.966,63.279 172.965,64.231 173.651 C 67.366 175.914,71.934 177.275,81.731 178.863 C 86.533 179.641,142.766 179.282,145.112 178.457 C 146.322 178.032,148.653 177.507,150.291 177.290 C 154.787 176.695,158.074 175.598,159.817 174.109 C 160.658 173.390,162.298 172.346,163.462 171.788 C 166.697 170.236,175.595 161.351,176.880 158.389 C 177.276 157.477,178.161 156.038,178.846 155.192 C 180.601 153.027,181.344 151.108,182.291 146.303 C 182.745 144.000,183.454 140.972,183.866 139.574 C 184.579 137.156,184.615 135.679,184.604 109.189 C 184.591 80.289,184.525 78.851,182.843 70.769 C 181.346 63.576,180.901 62.191,179.429 60.142 C 178.689 59.112,177.492 57.144,176.769 55.769 C 176.046 54.394,174.815 52.663,174.032 51.923 C 173.249 51.183,172.206 49.949,171.713 49.181 C 171.221 48.413,170.158 47.388,169.351 46.903 C 168.545 46.418,166.902 45.099,165.702 43.972 C 164.501 42.845,163.289 41.923,163.009 41.923 C 162.187 41.922,157.691 39.683,156.500 38.680 C 153.252 35.948,148.666 35.607,114.231 35.541 C 98.048 35.510,83.337 35.621,81.538 35.787 M145.888 63.013 C 146.694 63.287,148.252 64.324,149.350 65.318 C 150.448 66.313,151.983 67.520,152.761 68.001 C 155.025 69.399,157.079 75.112,158.074 82.774 C 158.728 87.814,158.564 132.036,157.884 133.742 C 157.566 134.540,156.882 137.076,156.362 139.379 L 155.419 143.566 151.999 146.931 C 150.118 148.781,148.250 150.390,147.848 150.506 C 147.445 150.622,146.077 150.917,144.808 151.163 C 143.538 151.408,141.248 152.035,139.718 152.556 L 136.937 153.503 112.411 153.371 C 81.766 153.206,76.717 152.435,72.964 147.342 C 72.092 146.160,70.828 144.670,70.154 144.032 C 67.655 141.666,67.692 142.219,67.696 106.949 L 67.700 75.192 68.596 73.269 C 70.471 69.244,77.270 63.279,80.636 62.707 C 83.899 62.151,144.183 62.434,145.888 63.013 M238.269 195.812 C 236.788 196.211,233.500 196.900,230.962 197.344 C 226.278 198.162,225.247 198.564,223.380 200.300 C 222.807 200.833,221.210 201.892,219.831 202.654 C 216.161 204.681,209.328 211.220,207.713 214.250 C 207.008 215.573,205.875 217.278,205.194 218.039 C 203.513 219.920,203.299 220.411,202.324 224.615 C 201.857 226.625,201.061 229.099,200.553 230.112 C 198.314 234.586,198.357 233.974,198.177 264.038 C 197.995 294.354,198.111 296.742,200.049 302.308 C 200.675 304.106,201.693 307.437,202.311 309.711 C 203.592 314.427,203.775 314.834,205.195 316.154 C 205.764 316.683,206.640 317.921,207.141 318.906 C 208.090 320.769,213.452 326.489,215.742 328.080 C 216.468 328.585,217.647 329.645,218.362 330.437 C 219.167 331.327,220.371 332.112,221.517 332.493 C 222.536 332.831,224.532 333.809,225.953 334.666 C 232.461 338.591,235.150 338.846,270.076 338.846 C 304.683 338.846,311.806 338.299,315.475 335.356 C 316.265 334.722,318.070 333.684,319.487 333.048 C 320.903 332.413,322.790 331.222,323.681 330.401 C 324.571 329.581,326.495 328.114,327.957 327.142 C 330.123 325.701,330.895 324.894,332.126 322.783 C 332.957 321.358,334.265 319.500,335.033 318.654 C 336.717 316.798,337.141 316.020,338.147 312.945 C 338.574 311.643,339.505 309.533,340.216 308.257 C 342.785 303.654,342.733 304.573,342.593 265.844 C 342.454 227.391,342.518 228.414,340.043 224.998 C 339.454 224.186,338.418 221.970,337.740 220.074 C 336.796 217.435,336.098 216.194,334.762 214.780 C 333.802 213.764,332.600 212.109,332.090 211.103 C 331.483 209.906,330.530 208.846,329.331 208.035 C 328.324 207.353,327.006 206.211,326.401 205.497 C 325.797 204.783,324.066 203.580,322.555 202.824 C 321.044 202.068,319.079 200.858,318.188 200.135 C 316.080 198.423,314.789 197.922,310.468 197.141 C 308.504 196.786,306.167 196.204,305.275 195.849 C 302.626 194.792,242.178 194.760,238.269 195.812 M294.808 221.362 C 295.865 221.683,298.635 222.289,300.962 222.708 C 309.360 224.219,314.459 229.396,316.353 238.333 C 317.767 245.007,316.997 297.233,315.449 299.657 C 311.801 305.367,307.998 309.552,305.000 311.156 C 301.815 312.860,252.067 313.470,242.073 311.927 C 239.346 311.506,236.984 311.160,236.824 311.158 C 236.663 311.156,235.515 310.245,234.273 309.135 C 233.031 308.024,231.345 306.576,230.526 305.918 C 229.292 304.925,228.859 304.170,227.989 301.495 C 226.118 295.748,226.101 295.404,226.227 265.385 L 226.346 237.115 227.666 233.495 C 229.805 227.629,233.784 223.994,239.038 223.103 C 242.090 222.586,245.298 221.707,246.154 221.154 C 247.208 220.473,292.519 220.666,294.808 221.362 " stroke="none" fill="#000000" fill-rule="evenodd"></path><path id="path1" d="M327.331 47.906 C 324.297 48.564,323.905 48.935,323.234 51.785 C 321.584 58.801,322.939 63.155,327.201 64.527 C 330.494 65.588,334.752 65.693,336.164 64.749 C 340.632 61.761,341.729 58.206,339.960 52.444 C 338.456 47.547,334.892 46.266,327.331 47.906 M217.377 56.708 C 211.666 57.832,211.924 55.588,211.924 104.047 C 211.923 152.150,211.523 149.010,217.897 150.955 L 221.073 151.923 244.286 151.914 C 258.267 151.908,268.112 151.753,269.038 151.524 C 269.885 151.315,272.544 150.973,274.948 150.765 C 280.390 150.293,283.270 149.558,284.571 148.311 C 285.126 147.780,286.771 146.805,288.226 146.145 C 292.059 144.408,300.191 136.191,302.069 132.159 C 302.770 130.654,303.718 129.092,304.175 128.687 C 308.797 124.599,308.712 84.586,304.069 79.163 C 303.315 78.282,302.348 76.625,301.920 75.480 C 300.583 71.908,300.034 71.149,295.826 67.066 C 292.977 64.301,290.911 62.660,289.038 61.674 C 287.558 60.895,285.791 59.839,285.113 59.327 C 283.601 58.185,281.257 57.456,276.731 56.720 C 272.084 55.964,221.208 55.953,217.377 56.708 M273.720 73.652 C 274.785 73.968,276.331 74.694,277.155 75.264 C 277.979 75.834,279.927 77.003,281.482 77.862 C 283.074 78.740,284.527 79.844,284.806 80.385 C 285.079 80.913,286.382 83.533,287.702 86.205 L 290.102 91.064 289.928 103.826 L 289.755 116.588 286.914 122.158 C 283.582 128.694,284.569 127.704,277.885 131.212 L 272.500 134.038 251.987 134.171 L 231.474 134.304 230.567 133.452 C 228.937 131.921,228.846 130.249,228.846 101.956 C 228.846 75.373,228.854 75.094,229.643 74.090 L 230.440 73.077 251.112 73.077 C 268.337 73.077,272.106 73.173,273.720 73.652 M327.308 79.077 C 322.510 80.110,322.692 78.607,322.692 117.214 L 322.692 148.403 323.664 149.557 C 326.455 152.875,336.093 152.694,339.528 149.259 L 340.769 148.018 340.770 117.182 C 340.772 86.695,340.762 86.314,339.940 83.540 C 338.527 78.772,334.815 77.461,327.308 79.077 M106.731 197.729 C 98.748 198.512,97.241 198.813,94.465 200.172 C 92.961 200.908,90.135 201.854,88.184 202.274 C 84.172 203.138,83.446 203.455,81.501 205.193 C 80.741 205.873,79.269 206.737,78.232 207.113 C 74.711 208.389,73.084 209.294,72.278 210.427 C 71.835 211.048,70.565 212.138,69.454 212.848 C 68.344 213.558,67.054 214.625,66.587 215.218 C 66.121 215.810,65.145 216.700,64.417 217.194 C 63.690 217.688,62.420 219.087,61.594 220.302 C 60.769 221.518,59.635 222.758,59.075 223.057 C 58.515 223.357,57.520 224.480,56.864 225.551 C 56.208 226.623,55.026 228.205,54.236 229.068 C 53.227 230.169,52.482 231.598,51.730 233.875 C 51.141 235.657,50.002 238.067,49.199 239.231 C 47.689 241.417,44.256 253.800,43.654 259.231 C 43.525 260.394,43.137 262.837,42.792 264.658 C 42.178 267.897,42.183 268.027,43.005 270.532 C 43.498 272.032,43.846 274.064,43.846 275.436 C 43.846 276.940,44.318 279.451,45.165 282.447 C 45.890 285.015,46.687 288.154,46.937 289.423 C 47.525 292.413,48.151 293.889,49.589 295.679 C 50.233 296.481,51.284 298.686,51.924 300.580 C 52.841 303.293,53.445 304.392,54.772 305.762 C 55.698 306.718,56.721 308.029,57.046 308.676 C 58.215 311.006,67.430 320.261,70.472 322.159 C 71.376 322.722,72.902 323.913,73.864 324.804 C 75.155 325.999,76.434 326.697,78.748 327.467 C 80.473 328.042,82.455 328.927,83.153 329.435 C 83.852 329.943,84.781 330.623,85.218 330.947 C 85.654 331.270,87.212 331.813,88.679 332.154 C 90.146 332.495,93.560 333.361,96.267 334.079 C 99.462 334.927,102.066 335.385,103.696 335.385 C 105.076 335.385,106.525 335.556,106.917 335.766 C 108.993 336.877,111.839 337.259,114.108 336.731 C 115.339 336.445,117.471 336.089,118.846 335.941 C 124.016 335.382,137.828 331.894,139.192 330.803 C 140.725 329.576,143.377 328.275,146.317 327.308 C 147.985 326.758,149.565 325.908,150.547 325.028 C 151.410 324.257,152.844 323.158,153.734 322.587 C 154.624 322.016,156.026 320.637,156.849 319.524 C 157.671 318.410,158.642 317.252,159.005 316.951 C 160.771 315.485,160.881 314.355,159.390 312.994 C 158.053 311.775,156.661 310.351,154.596 308.091 C 153.970 307.406,152.600 306.690,150.816 306.115 L 148.018 305.214 145.465 306.538 C 144.061 307.266,142.098 308.585,141.103 309.468 C 140.108 310.352,138.299 311.447,137.083 311.902 C 135.866 312.357,134.219 313.246,133.423 313.877 C 126.789 319.131,100.825 319.236,91.538 314.045 C 89.529 312.922,87.228 311.796,86.425 311.543 C 85.616 311.288,84.140 310.257,83.113 309.230 C 82.094 308.211,80.587 307.029,79.765 306.603 C 77.858 305.615,73.393 301.046,72.371 299.038 C 71.941 298.192,70.903 296.866,70.065 296.091 C 69.080 295.179,68.247 293.888,67.708 292.437 C 67.249 291.202,66.217 289.154,65.415 287.885 C 60.154 279.560,60.259 250.765,65.568 245.777 C 66.088 245.289,66.951 243.746,67.485 242.349 C 68.053 240.863,69.077 239.148,69.952 238.220 C 70.775 237.347,72.070 235.521,72.830 234.161 C 74.367 231.414,74.863 230.904,78.462 228.382 C 79.837 227.418,81.308 226.244,81.731 225.772 C 82.154 225.301,83.712 224.310,85.192 223.570 C 86.673 222.830,88.519 221.573,89.294 220.776 C 90.228 219.817,91.201 219.238,92.179 219.061 C 92.990 218.914,96.361 218.202,99.671 217.478 C 110.422 215.127,116.642 215.085,124.231 217.310 C 125.606 217.713,128.115 218.241,129.808 218.484 C 133.289 218.983,133.737 219.171,135.723 220.966 C 136.507 221.674,138.612 222.954,140.401 223.812 C 143.097 225.105,143.805 225.638,144.538 226.929 C 145.153 228.012,145.971 228.747,147.222 229.341 C 148.613 230.002,149.247 230.621,150.010 232.065 C 150.585 233.152,151.634 234.358,152.518 234.948 C 153.675 235.719,154.407 236.717,155.577 239.116 C 156.423 240.851,157.569 242.755,158.123 243.347 C 159.947 245.294,160.426 246.433,160.985 250.153 C 161.288 252.176,161.795 254.570,162.110 255.473 C 165.063 263.933,163.118 281.715,158.941 284.452 C 157.738 285.240,152.913 285.037,149.758 284.066 L 147.785 283.459 147.162 280.978 C 146.624 278.838,146.538 275.552,146.538 257.127 L 146.538 235.758 145.221 234.321 L 143.904 232.885 125.510 232.885 C 103.233 232.885,99.956 233.318,95.450 236.864 C 94.674 237.475,93.260 238.368,92.308 238.849 C 87.045 241.506,79.842 252.323,78.223 260.000 C 77.019 265.704,77.967 276.222,79.964 279.329 C 80.741 280.536,81.414 281.919,83.193 285.956 C 84.711 289.401,90.727 295.067,94.644 296.742 C 96.426 297.504,98.231 298.442,98.654 298.826 C 102.891 302.677,119.665 302.700,126.025 298.864 C 131.499 295.562,133.567 295.556,137.885 298.830 C 141.500 301.572,146.946 303.110,150.182 302.303 C 151.296 302.025,155.784 301.742,160.769 301.635 C 172.330 301.386,174.410 300.182,176.772 292.372 C 177.326 290.538,178.354 287.559,179.055 285.750 C 182.607 276.594,182.792 256.794,179.390 249.771 C 178.663 248.269,177.718 245.433,177.289 243.467 C 176.402 239.407,176.225 238.997,174.213 236.346 C 173.410 235.288,172.299 233.212,171.744 231.731 C 171.188 230.250,170.163 228.433,169.466 227.692 C 168.768 226.952,167.794 225.740,167.300 225.000 C 165.983 223.025,157.043 214.011,154.808 212.405 C 153.750 211.645,152.349 210.525,151.694 209.917 C 151.039 209.308,149.228 208.291,147.668 207.657 C 146.108 207.022,143.961 205.830,142.896 205.009 C 140.587 203.227,139.805 202.908,135.387 201.944 C 133.526 201.538,130.923 200.660,129.601 199.993 C 125.991 198.170,114.165 197.000,106.731 197.729 M128.537 250.649 L 129.615 251.682 129.615 259.708 C 129.615 269.367,129.131 272.203,127.057 274.686 C 126.318 275.569,125.393 276.922,125.001 277.691 C 124.107 279.443,123.804 279.689,120.390 281.450 C 118.860 282.239,117.065 283.181,116.400 283.543 C 113.302 285.232,111.489 284.965,105.478 281.930 L 99.995 279.161 97.919 274.794 C 94.384 267.358,94.372 267.058,97.376 260.769 C 98.235 258.971,99.127 257.096,99.359 256.603 C 99.590 256.109,100.565 255.255,101.524 254.705 C 102.484 254.155,103.983 253.061,104.855 252.275 C 106.007 251.234,107.004 250.734,108.508 250.442 C 109.646 250.221,110.923 249.964,111.346 249.872 C 111.769 249.780,115.567 249.685,119.787 249.660 L 127.458 249.615 128.537 250.649 " stroke="none" fill="#e57c2a" fill-rule="evenodd"></path><path id="path2" d="M0.000 192.308 L 0.000 384.615 200.000 384.615 L 400.000 384.615 400.000 192.308 L 400.000 0.000 200.000 0.000 L 0.000 0.000 0.000 192.308 M148.269 36.278 C 153.776 37.090,155.053 37.463,156.500 38.680 C 157.691 39.683,162.187 41.922,163.009 41.923 C 163.289 41.923,164.501 42.845,165.702 43.972 C 166.902 45.099,168.545 46.418,169.351 46.903 C 170.158 47.388,171.221 48.413,171.713 49.181 C 172.206 49.949,173.249 51.183,174.032 51.923 C 174.815 52.663,176.046 54.394,176.769 55.769 C 177.492 57.144,178.689 59.112,179.429 60.142 C 180.901 62.191,181.346 63.576,182.843 70.769 C 184.525 78.851,184.591 80.289,184.604 109.189 C 184.615 135.679,184.579 137.156,183.866 139.574 C 183.454 140.972,182.745 144.000,182.291 146.303 C 181.344 151.108,180.601 153.027,178.846 155.192 C 178.161 156.038,177.276 157.477,176.880 158.389 C 175.595 161.351,166.697 170.236,163.462 171.788 C 162.298 172.346,160.658 173.390,159.817 174.109 C 158.074 175.598,154.787 176.695,150.291 177.290 C 148.653 177.507,146.322 178.032,145.112 178.457 C 142.766 179.282,86.533 179.641,81.731 178.863 C 71.934 177.275,67.366 175.914,64.231 173.651 C 63.279 172.965,61.635 171.966,60.577 171.432 C 59.519 170.898,58.221 169.990,57.692 169.414 C 57.163 168.838,55.829 167.696,54.728 166.876 C 53.626 166.055,52.285 164.635,51.749 163.720 C 51.213 162.804,50.116 161.527,49.311 160.880 C 48.253 160.029,47.560 158.968,46.801 157.033 C 46.224 155.564,44.982 153.188,44.040 151.754 C 43.097 150.319,42.243 148.602,42.141 147.938 C 40.749 138.862,40.714 137.696,40.873 105.192 C 41.051 68.693,41.172 67.049,43.971 62.933 C 44.708 61.849,45.880 59.783,46.574 58.343 C 47.269 56.902,48.674 54.768,49.696 53.599 C 50.719 52.430,51.880 50.839,52.275 50.064 C 53.114 48.421,53.910 47.659,55.769 46.721 C 56.510 46.348,57.966 45.279,59.006 44.347 C 60.046 43.415,62.296 41.956,64.006 41.104 C 65.716 40.252,67.894 39.054,68.846 38.442 C 70.673 37.268,74.759 36.413,81.538 35.787 C 88.612 35.134,143.234 35.536,148.269 36.278 M336.715 48.110 C 338.879 49.127,338.985 49.269,339.960 52.444 C 341.729 58.206,340.632 61.761,336.164 64.749 C 333.263 66.689,325.114 64.805,323.616 61.848 C 322.146 58.947,322.590 50.707,324.309 48.988 C 325.893 47.404,333.994 46.831,336.715 48.110 M276.731 56.720 C 281.257 57.456,283.601 58.185,285.113 59.327 C 285.791 59.839,287.558 60.895,289.038 61.674 C 290.911 62.660,292.977 64.301,295.826 67.066 C 300.034 71.149,300.583 71.908,301.920 75.480 C 302.348 76.625,303.315 78.282,304.069 79.163 C 308.712 84.586,308.797 124.599,304.175 128.687 C 303.718 129.092,302.770 130.654,302.069 132.159 C 300.191 136.191,292.059 144.408,288.226 146.145 C 286.771 146.805,285.126 147.780,284.571 148.311 C 283.270 149.558,280.390 150.293,274.948 150.765 C 272.544 150.973,269.885 151.315,269.038 151.524 C 268.112 151.753,258.267 151.908,244.286 151.914 L 221.073 151.923 217.897 150.955 C 211.523 149.010,211.923 152.150,211.924 104.047 C 211.924 55.588,211.666 57.832,217.377 56.708 C 221.208 55.953,272.084 55.964,276.731 56.720 M80.636 62.707 C 77.270 63.279,70.471 69.244,68.596 73.269 L 67.700 75.192 67.696 106.949 C 67.692 142.219,67.655 141.666,70.154 144.032 C 70.828 144.670,72.092 146.160,72.964 147.342 C 76.717 152.435,81.766 153.206,112.411 153.371 L 136.937 153.503 139.718 152.556 C 141.248 152.035,143.538 151.408,144.808 151.163 C 146.077 150.917,147.445 150.622,147.848 150.506 C 148.250 150.390,150.118 148.781,151.999 146.931 L 155.419 143.566 156.362 139.379 C 156.882 137.076,157.566 134.540,157.884 133.742 C 158.564 132.036,158.728 87.814,158.074 82.774 C 157.079 75.112,155.025 69.399,152.761 68.001 C 151.983 67.520,150.448 66.313,149.350 65.318 C 148.252 64.324,146.694 63.287,145.888 63.013 C 144.183 62.434,83.899 62.151,80.636 62.707 M229.643 74.090 C 228.854 75.094,228.846 75.373,228.846 101.956 C 228.846 130.249,228.937 131.921,230.567 133.452 L 231.474 134.304 251.987 134.171 L 272.500 134.038 277.885 131.212 C 284.569 127.704,283.582 128.694,286.914 122.158 L 289.755 116.588 289.928 103.826 L 290.102 91.064 287.702 86.205 C 286.382 83.533,285.079 80.913,284.806 80.385 C 284.527 79.844,283.074 78.740,281.482 77.862 C 279.927 77.003,277.979 75.834,277.155 75.264 C 274.047 73.114,273.609 73.077,251.112 73.077 L 230.440 73.077 229.643 74.090 M335.808 78.905 C 340.882 80.626,340.772 79.773,340.770 117.182 L 340.769 148.018 339.528 149.259 C 336.093 152.694,326.455 152.875,323.664 149.557 L 322.692 148.403 322.692 117.214 C 322.692 85.330,322.826 82.002,324.175 80.377 C 325.401 78.901,332.972 77.943,335.808 78.905 M305.275 195.849 C 306.167 196.204,308.504 196.786,310.468 197.141 C 314.789 197.922,316.080 198.423,318.188 200.135 C 319.079 200.858,321.044 202.068,322.555 202.824 C 324.066 203.580,325.797 204.783,326.401 205.497 C 327.006 206.211,328.324 207.353,329.331 208.035 C 330.530 208.846,331.483 209.906,332.090 211.103 C 332.600 212.109,333.802 213.764,334.762 214.780 C 336.098 216.194,336.796 217.435,337.740 220.074 C 338.418 221.970,339.454 224.186,340.043 224.998 C 342.518 228.414,342.454 227.391,342.593 265.844 C 342.733 304.573,342.785 303.654,340.216 308.257 C 339.505 309.533,338.574 311.643,338.147 312.945 C 337.141 316.020,336.717 316.798,335.033 318.654 C 334.265 319.500,332.957 321.358,332.126 322.783 C 330.895 324.894,330.123 325.701,327.957 327.142 C 326.495 328.114,324.571 329.581,323.681 330.401 C 322.790 331.222,320.903 332.413,319.487 333.048 C 318.070 333.684,316.265 334.722,315.475 335.356 C 311.806 338.299,304.683 338.846,270.076 338.846 C 235.150 338.846,232.461 338.591,225.953 334.666 C 224.532 333.809,222.536 332.831,221.517 332.493 C 220.371 332.112,219.167 331.327,218.362 330.437 C 217.647 329.645,216.468 328.585,215.742 328.080 C 213.452 326.489,208.090 320.769,207.141 318.906 C 206.640 317.921,205.764 316.683,205.195 316.154 C 203.775 314.834,203.592 314.427,202.311 309.711 C 201.693 307.437,200.675 304.106,200.049 302.308 C 198.111 296.742,197.995 294.354,198.177 264.038 C 198.357 233.974,198.314 234.586,200.553 230.112 C 201.061 229.099,201.857 226.625,202.324 224.615 C 203.299 220.411,203.513 219.920,205.194 218.039 C 205.875 217.278,207.008 215.573,207.713 214.250 C 209.328 211.220,216.161 204.681,219.831 202.654 C 221.210 201.892,222.807 200.833,223.380 200.300 C 225.247 198.564,226.278 198.162,230.962 197.344 C 233.500 196.900,236.788 196.211,238.269 195.812 C 242.178 194.760,302.626 194.792,305.275 195.849 M122.734 198.274 C 126.346 198.684,127.658 199.012,129.601 199.993 C 130.923 200.660,133.526 201.538,135.387 201.944 C 139.805 202.908,140.587 203.227,142.896 205.009 C 143.961 205.830,146.108 207.022,147.668 207.657 C 149.228 208.291,151.039 209.308,151.694 209.917 C 152.349 210.525,153.750 211.645,154.808 212.405 C 157.043 214.011,165.983 223.025,167.300 225.000 C 167.794 225.740,168.768 226.952,169.466 227.692 C 170.163 228.433,171.188 230.250,171.744 231.731 C 172.299 233.212,173.410 235.288,174.213 236.346 C 176.225 238.997,176.402 239.407,177.289 243.467 C 177.718 245.433,178.663 248.269,179.390 249.771 C 182.792 256.794,182.607 276.594,179.055 285.750 C 178.354 287.559,177.326 290.538,176.772 292.372 C 174.410 300.182,172.330 301.386,160.769 301.635 C 155.784 301.742,151.296 302.025,150.182 302.303 C 146.946 303.110,141.500 301.572,137.885 298.830 C 133.567 295.556,131.499 295.562,126.025 298.864 C 119.665 302.700,102.891 302.677,98.654 298.826 C 98.231 298.442,96.426 297.504,94.644 296.742 C 90.727 295.067,84.711 289.401,83.193 285.956 C 81.414 281.919,80.741 280.536,79.964 279.329 C 77.967 276.222,77.019 265.704,78.223 260.000 C 79.842 252.323,87.045 241.506,92.308 238.849 C 93.260 238.368,94.674 237.475,95.450 236.864 C 99.956 233.318,103.233 232.885,125.510 232.885 L 143.904 232.885 145.221 234.321 L 146.538 235.758 146.538 257.127 C 146.538 275.552,146.624 278.838,147.162 280.978 L 147.785 283.459 149.758 284.066 C 152.913 285.037,157.738 285.240,158.941 284.452 C 163.118 281.715,165.063 263.933,162.110 255.473 C 161.795 254.570,161.288 252.176,160.985 250.153 C 160.426 246.433,159.947 245.294,158.123 243.347 C 157.569 242.755,156.423 240.851,155.577 239.116 C 154.407 236.717,153.675 235.719,152.518 234.948 C 151.634 234.358,150.585 233.152,150.010 232.065 C 149.247 230.621,148.613 230.002,147.222 229.341 C 145.971 228.747,145.153 228.012,144.538 226.929 C 143.805 225.638,143.097 225.105,140.401 223.812 C 138.612 222.954,136.507 221.674,135.723 220.966 C 133.737 219.171,133.289 218.983,129.808 218.484 C 128.115 218.241,125.606 217.713,124.231 217.310 C 116.642 215.085,110.422 215.127,99.671 217.478 C 96.361 218.202,92.990 218.914,92.179 219.061 C 91.201 219.238,90.228 219.817,89.294 220.776 C 88.519 221.573,86.673 222.830,85.192 223.570 C 83.712 224.310,82.154 225.301,81.731 225.772 C 81.308 226.244,79.837 227.418,78.462 228.382 C 74.863 230.904,74.367 231.414,72.830 234.161 C 72.070 235.521,70.775 237.347,69.952 238.220 C 69.077 239.148,68.053 240.863,67.485 242.349 C 66.951 243.746,66.088 245.289,65.568 245.777 C 60.259 250.765,60.154 279.560,65.415 287.885 C 66.217 289.154,67.249 291.202,67.708 292.437 C 68.247 293.888,69.080 295.179,70.065 296.091 C 70.903 296.866,71.941 298.192,72.371 299.038 C 73.393 301.046,77.858 305.615,79.765 306.603 C 80.587 307.029,82.094 308.211,83.113 309.230 C 84.140 310.257,85.616 311.288,86.425 311.543 C 87.228 311.796,89.529 312.922,91.538 314.045 C 100.825 319.236,126.789 319.131,133.423 313.877 C 134.219 313.246,135.866 312.357,137.083 311.902 C 138.299 311.447,140.108 310.352,141.103 309.468 C 142.098 308.585,144.061 307.266,145.465 306.538 L 148.018 305.214 150.816 306.115 C 152.600 306.690,153.970 307.406,154.596 308.091 C 156.661 310.351,158.053 311.775,159.390 312.994 C 160.881 314.355,160.771 315.485,159.005 316.951 C 158.642 317.252,157.671 318.410,156.849 319.524 C 156.026 320.637,154.624 322.016,153.734 322.587 C 152.844 323.158,151.410 324.257,150.547 325.028 C 149.565 325.908,147.985 326.758,146.317 327.308 C 143.377 328.275,140.725 329.576,139.192 330.803 C 137.828 331.894,124.016 335.382,118.846 335.941 C 117.471 336.089,115.339 336.445,114.108 336.731 C 111.839 337.259,108.993 336.877,106.917 335.766 C 106.525 335.556,105.076 335.385,103.696 335.385 C 102.066 335.385,99.462 334.927,96.267 334.079 C 93.560 333.361,90.146 332.495,88.679 332.154 C 87.212 331.813,85.654 331.270,85.218 330.947 C 84.781 330.623,83.852 329.943,83.153 329.435 C 82.455 328.927,80.473 328.042,78.748 327.467 C 76.434 326.697,75.155 325.999,73.864 324.804 C 72.902 323.913,71.376 322.722,70.472 322.159 C 67.430 320.261,58.215 311.006,57.046 308.676 C 56.721 308.029,55.698 306.718,54.772 305.762 C 53.445 304.392,52.841 303.293,51.924 300.580 C 51.284 298.686,50.233 296.481,49.589 295.679 C 48.151 293.889,47.525 292.413,46.937 289.423 C 46.687 288.154,45.890 285.015,45.165 282.447 C 44.318 279.451,43.846 276.940,43.846 275.436 C 43.846 274.064,43.498 272.032,43.005 270.532 C 42.183 268.027,42.178 267.897,42.792 264.658 C 43.137 262.837,43.525 260.394,43.654 259.231 C 44.256 253.800,47.689 241.417,49.199 239.231 C 50.002 238.067,51.141 235.657,51.730 233.875 C 52.482 231.598,53.227 230.169,54.236 229.068 C 55.026 228.205,56.208 226.623,56.864 225.551 C 57.520 224.480,58.515 223.357,59.075 223.057 C 59.635 222.758,60.769 221.518,61.594 220.302 C 62.420 219.087,63.690 217.688,64.417 217.194 C 65.145 216.700,66.121 215.810,66.587 215.218 C 67.054 214.625,68.344 213.558,69.454 212.848 C 70.565 212.138,71.835 211.048,72.278 210.427 C 73.084 209.294,74.711 208.389,78.232 207.113 C 79.269 206.737,80.741 205.873,81.501 205.193 C 83.446 203.455,84.172 203.138,88.184 202.274 C 90.135 201.854,92.961 200.908,94.465 200.172 C 99.694 197.612,110.500 196.886,122.734 198.274 M246.154 221.154 C 245.298 221.707,242.090 222.586,239.038 223.103 C 233.784 223.994,229.805 227.629,227.666 233.495 L 226.346 237.115 226.227 265.385 C 226.101 295.404,226.118 295.748,227.989 301.495 C 228.859 304.170,229.292 304.925,230.526 305.918 C 231.345 306.576,233.031 308.024,234.273 309.135 C 235.515 310.245,236.663 311.156,236.824 311.158 C 236.984 311.160,239.346 311.506,242.073 311.927 C 252.067 313.470,301.815 312.860,305.000 311.156 C 307.998 309.552,311.801 305.367,315.449 299.657 C 316.997 297.233,317.767 245.007,316.353 238.333 C 314.459 229.396,309.360 224.219,300.962 222.708 C 298.635 222.289,295.865 221.683,294.808 221.362 C 292.519 220.666,247.208 220.473,246.154 221.154 M111.346 249.872 C 110.923 249.964,109.646 250.221,108.508 250.442 C 107.004 250.734,106.007 251.234,104.855 252.275 C 103.983 253.061,102.484 254.155,101.524 254.705 C 100.565 255.255,99.590 256.109,99.359 256.603 C 99.127 257.096,98.235 258.971,97.376 260.769 C 94.372 267.058,94.384 267.358,97.919 274.794 L 99.995 279.161 105.478 281.930 C 111.489 284.965,113.302 285.232,116.400 283.543 C 117.065 283.181,118.860 282.239,120.390 281.450 C 123.804 279.689,124.107 279.443,125.001 277.691 C 125.393 276.922,126.318 275.569,127.057 274.686 C 129.131 272.203,129.615 269.367,129.615 259.708 L 129.615 251.682 128.537 250.649 L 127.458 249.615 119.787 249.660 C 115.567 249.685,111.769 249.780,111.346 249.872 " stroke="none" fill="#f2f2f2" fill-rule="evenodd"></path></g></svg>